<svg xmlns="http://www.w3.org/2000/svg" xmlns:xlink="http://www.w3.org/1999/xlink" width="321.126" height="321.126" viewBox="0 0 321.126 321.126">
  <defs>
    <clipPath id="clip-path">
      <rect id="Rectangle_16073" data-name="Rectangle 16073" width="321.126" height="321.126" fill="#878694"/>
    </clipPath>
  </defs>
  <g id="Group_45729" data-name="Group 45729" opacity="0.84">
    <g id="Group_45726" data-name="Group 45726" clip-path="url(#clip-path)">
      <path id="Path_105246" data-name="Path 105246" d="M48.051.1A.052.052,0,0,0,48.1.048a.051.051,0,0,0-.1,0A.052.052,0,0,0,48.051.1" transform="translate(94.657)" fill="#878694"/>
      <path id="Path_105247" data-name="Path 105247" d="M54.051.1A.052.052,0,0,0,54.1.048a.051.051,0,0,0-.1,0A.052.052,0,0,0,54.051.1" transform="translate(106.489)" fill="#878694"/>
      <path id="Path_105248" data-name="Path 105248" d="M60.051.1A.052.052,0,0,0,60.1.048a.051.051,0,0,0-.1,0A.052.052,0,0,0,60.051.1" transform="translate(118.321)" fill="#878694"/>
      <path id="Path_105249" data-name="Path 105249" d="M30.082,6.18a.1.1,0,0,0,.1-.1.1.1,0,0,0-.2,0,.1.1,0,0,0,.1.1" transform="translate(59.129 11.801)" fill="#878694"/>
      <path id="Path_105250" data-name="Path 105250" d="M36.181,6.427a.247.247,0,1,0-.247-.247.246.246,0,0,0,.247.247" transform="translate(70.862 11.702)" fill="#878694"/>
      <path id="Path_105251" data-name="Path 105251" d="M42.344,6.84a.495.495,0,1,0-.493-.493.494.494,0,0,0,.493.493" transform="translate(82.531 11.536)" fill="#878694"/>
      <path id="Path_105252" data-name="Path 105252" d="M48.411,7a.593.593,0,1,0-.594-.594A.594.594,0,0,0,48.411,7" transform="translate(94.296 11.471)" fill="#878694"/>
      <path id="Path_105253" data-name="Path 105253" d="M54.443,7.087a.643.643,0,1,0-.642-.642.643.643,0,0,0,.642.642" transform="translate(106.096 11.438)" fill="#878694"/>
      <path id="Path_105254" data-name="Path 105254" d="M60.443,7.087a.643.643,0,1,0-.642-.642.643.643,0,0,0,.642.642" transform="translate(117.929 11.438)" fill="#878694"/>
      <path id="Path_105255" data-name="Path 105255" d="M66.344,6.84a.495.495,0,1,0-.493-.493.494.494,0,0,0,.493.493" transform="translate(129.859 11.536)" fill="#878694"/>
      <path id="Path_105256" data-name="Path 105256" d="M72.214,6.511a.3.3,0,1,0-.3-.3.3.3,0,0,0,.3.3" transform="translate(141.822 11.668)" fill="#878694"/>
      <path id="Path_105257" data-name="Path 105257" d="M78.082,6.18a.1.1,0,0,0,.1-.1.1.1,0,1,0-.2,0,.1.1,0,0,0,.1.1" transform="translate(153.786 11.801)" fill="#878694"/>
      <path id="Path_105258" data-name="Path 105258" d="M24.181,12.427a.247.247,0,1,0-.247-.247.246.246,0,0,0,.247.247" transform="translate(47.198 23.534)" fill="#878694"/>
      <path id="Path_105259" data-name="Path 105259" d="M30.411,13a.593.593,0,1,0-.594-.594.594.594,0,0,0,.594.594" transform="translate(58.8 23.303)" fill="#878694"/>
      <path id="Path_105260" data-name="Path 105260" d="M36.64,13.579a.939.939,0,1,0-.939-.939.939.939,0,0,0,.939.939" transform="translate(70.403 23.075)" fill="#878694"/>
      <path id="Path_105261" data-name="Path 105261" d="M42.772,13.908a1.137,1.137,0,1,0-1.138-1.138,1.138,1.138,0,0,0,1.138,1.138" transform="translate(82.103 22.942)" fill="#878694"/>
      <path id="Path_105262" data-name="Path 105262" d="M48.871,14.155a1.285,1.285,0,1,0-1.287-1.287,1.287,1.287,0,0,0,1.287,1.287" transform="translate(93.836 22.844)" fill="#878694"/>
      <path id="Path_105263" data-name="Path 105263" d="M54.936,14.321a1.385,1.385,0,1,0-1.385-1.385,1.386,1.386,0,0,0,1.385,1.385" transform="translate(105.603 22.779)" fill="#878694"/>
      <path id="Path_105264" data-name="Path 105264" d="M60.9,14.237A1.334,1.334,0,1,0,59.568,12.9,1.334,1.334,0,0,0,60.9,14.237" transform="translate(117.469 22.812)" fill="#878694"/>
      <path id="Path_105265" data-name="Path 105265" d="M66.8,13.992a1.187,1.187,0,1,0-1.186-1.186A1.185,1.185,0,0,0,66.8,13.992" transform="translate(129.4 22.909)" fill="#878694"/>
      <path id="Path_105266" data-name="Path 105266" d="M72.64,13.579a.939.939,0,1,0-.939-.939.939.939,0,0,0,.939.939" transform="translate(141.396 23.075)" fill="#878694"/>
      <path id="Path_105267" data-name="Path 105267" d="M78.443,13.087a.643.643,0,1,0-.642-.642.643.643,0,0,0,.642.642" transform="translate(153.425 23.27)" fill="#878694"/>
      <path id="Path_105268" data-name="Path 105268" d="M84.214,12.511a.3.3,0,1,0-.3-.3.3.3,0,0,0,.3.3" transform="translate(165.486 23.501)" fill="#878694"/>
      <path id="Path_105269" data-name="Path 105269" d="M18.214,18.511a.3.3,0,1,0-.3-.3.3.3,0,0,0,.3.3" transform="translate(35.333 35.333)" fill="#878694"/>
      <path id="Path_105270" data-name="Path 105270" d="M24.542,19.332a.791.791,0,1,0-.791-.791.79.79,0,0,0,.791.791" transform="translate(46.837 35.005)" fill="#878694"/>
      <path id="Path_105271" data-name="Path 105271" d="M30.8,19.992a1.187,1.187,0,1,0-1.186-1.186A1.185,1.185,0,0,0,30.8,19.992" transform="translate(58.407 34.741)" fill="#878694"/>
      <path id="Path_105272" data-name="Path 105272" d="M37.035,20.568A1.534,1.534,0,1,0,35.5,19.035a1.533,1.533,0,0,0,1.534,1.534" transform="translate(70.009 34.512)" fill="#878694"/>
      <path id="Path_105273" data-name="Path 105273" d="M43.232,21.06A1.829,1.829,0,1,0,41.4,19.229a1.832,1.832,0,0,0,1.831,1.831" transform="translate(81.643 34.315)" fill="#878694"/>
      <path id="Path_105274" data-name="Path 105274" d="M49.328,21.307a1.978,1.978,0,1,0-1.976-1.979,1.976,1.976,0,0,0,1.976,1.979" transform="translate(93.379 34.216)" fill="#878694"/>
      <path id="Path_105275" data-name="Path 105275" d="M55.4,21.47A2.076,2.076,0,1,0,53.318,19.4,2.075,2.075,0,0,0,55.4,21.47" transform="translate(105.144 34.151)" fill="#878694"/>
      <path id="Path_105276" data-name="Path 105276" d="M61.362,21.389a2.027,2.027,0,1,0-2.027-2.027,2.026,2.026,0,0,0,2.027,2.027" transform="translate(117.01 34.185)" fill="#878694"/>
      <path id="Path_105277" data-name="Path 105277" d="M67.232,21.06A1.829,1.829,0,1,0,65.4,19.229a1.832,1.832,0,0,0,1.831,1.831" transform="translate(128.972 34.315)" fill="#878694"/>
      <path id="Path_105278" data-name="Path 105278" d="M73.066,20.649a1.583,1.583,0,1,0-1.581-1.581,1.58,1.58,0,0,0,1.581,1.581" transform="translate(140.97 34.479)" fill="#878694"/>
      <path id="Path_105279" data-name="Path 105279" d="M78.837,20.074A1.236,1.236,0,1,0,77.6,18.837a1.235,1.235,0,0,0,1.236,1.236" transform="translate(153.031 34.709)" fill="#878694"/>
      <path id="Path_105280" data-name="Path 105280" d="M84.542,19.332a.791.791,0,1,0-.791-.791.79.79,0,0,0,.791.791" transform="translate(165.158 35.005)" fill="#878694"/>
      <path id="Path_105281" data-name="Path 105281" d="M90.246,18.592a.346.346,0,1,0-.345-.348.348.348,0,0,0,.345.348" transform="translate(177.286 35.299)" fill="#878694"/>
      <path id="Path_105282" data-name="Path 105282" d="M12.181,24.427a.247.247,0,1,0-.247-.247.246.246,0,0,0,.247.247" transform="translate(23.534 47.198)" fill="#878694"/>
      <path id="Path_105283" data-name="Path 105283" d="M18.542,25.332a.791.791,0,1,0-.791-.791.79.79,0,0,0,.791.791" transform="translate(35.005 46.837)" fill="#878694"/>
      <path id="Path_105284" data-name="Path 105284" d="M24.871,26.155a1.285,1.285,0,1,0-1.287-1.287,1.287,1.287,0,0,0,1.287,1.287" transform="translate(46.508 46.508)" fill="#878694"/>
      <path id="Path_105285" data-name="Path 105285" d="M31.2,26.978a1.78,1.78,0,1,0-1.78-1.78,1.78,1.78,0,0,0,1.78,1.78" transform="translate(58.013 46.181)" fill="#878694"/>
      <path id="Path_105286" data-name="Path 105286" d="M37.461,27.636a2.176,2.176,0,1,0-2.176-2.176,2.177,2.177,0,0,0,2.176,2.176" transform="translate(69.583 45.918)" fill="#878694"/>
      <path id="Path_105287" data-name="Path 105287" d="M43.658,28.13a2.473,2.473,0,1,0-2.473-2.473,2.471,2.471,0,0,0,2.473,2.473" transform="translate(81.218 45.721)" fill="#878694"/>
      <path id="Path_105288" data-name="Path 105288" d="M49.788,28.459a2.67,2.67,0,1,0-2.669-2.669,2.669,2.669,0,0,0,2.669,2.669" transform="translate(92.919 45.589)" fill="#878694"/>
      <path id="Path_105289" data-name="Path 105289" d="M55.855,28.623a2.768,2.768,0,1,0-2.77-2.77,2.769,2.769,0,0,0,2.77,2.77" transform="translate(104.685 45.526)" fill="#878694"/>
      <path id="Path_105290" data-name="Path 105290" d="M61.788,28.459a2.67,2.67,0,1,0-2.669-2.669,2.669,2.669,0,0,0,2.669,2.669" transform="translate(116.584 45.589)" fill="#878694"/>
      <path id="Path_105291" data-name="Path 105291" d="M67.689,28.212a2.522,2.522,0,1,0-2.52-2.523,2.523,2.523,0,0,0,2.52,2.523" transform="translate(128.514 45.688)" fill="#878694"/>
      <path id="Path_105292" data-name="Path 105292" d="M73.461,27.636a2.176,2.176,0,1,0-2.176-2.176,2.177,2.177,0,0,0,2.176,2.176" transform="translate(140.575 45.918)" fill="#878694"/>
      <path id="Path_105293" data-name="Path 105293" d="M79.2,26.978a1.78,1.78,0,1,0-1.78-1.78,1.78,1.78,0,0,0,1.78,1.78" transform="translate(152.67 46.181)" fill="#878694"/>
      <path id="Path_105294" data-name="Path 105294" d="M84.9,26.237A1.334,1.334,0,1,0,83.568,24.9,1.334,1.334,0,0,0,84.9,26.237" transform="translate(164.798 46.477)" fill="#878694"/>
      <path id="Path_105295" data-name="Path 105295" d="M90.575,25.416a.841.841,0,1,0-.841-.841.842.842,0,0,0,.841.841" transform="translate(176.957 46.804)" fill="#878694"/>
      <path id="Path_105296" data-name="Path 105296" d="M96.214,24.511a.3.3,0,1,0-.3-.3.3.3,0,0,0,.3.3" transform="translate(189.15 47.165)" fill="#878694"/>
      <path id="Path_105297" data-name="Path 105297" d="M6.082,30.18a.1.1,0,0,0,.1-.1.1.1,0,1,0-.2,0,.1.1,0,0,0,.1.1" transform="translate(11.801 59.129)" fill="#878694"/>
      <path id="Path_105298" data-name="Path 105298" d="M12.411,31a.593.593,0,1,0-.594-.594.594.594,0,0,0,.594.594" transform="translate(23.303 58.8)" fill="#878694"/>
      <path id="Path_105299" data-name="Path 105299" d="M18.8,31.992a1.187,1.187,0,1,0-1.186-1.186A1.185,1.185,0,0,0,18.8,31.992" transform="translate(34.743 58.405)" fill="#878694"/>
      <path id="Path_105300" data-name="Path 105300" d="M25.2,32.978a1.78,1.78,0,1,0-1.78-1.78,1.78,1.78,0,0,0,1.78,1.78" transform="translate(46.181 58.013)" fill="#878694"/>
      <path id="Path_105301" data-name="Path 105301" d="M31.526,33.8a2.275,2.275,0,1,0-2.274-2.274A2.274,2.274,0,0,0,31.526,33.8" transform="translate(57.685 57.683)" fill="#878694"/>
      <path id="Path_105302" data-name="Path 105302" d="M37.821,34.541A2.719,2.719,0,1,0,35.1,31.821a2.721,2.721,0,0,0,2.719,2.719" transform="translate(69.222 57.39)" fill="#878694"/>
      <path id="Path_105303" data-name="Path 105303" d="M44.084,35.2a3.115,3.115,0,1,0-3.115-3.115A3.114,3.114,0,0,0,44.084,35.2" transform="translate(80.792 57.127)" fill="#878694"/>
      <path id="Path_105304" data-name="Path 105304" d="M50.247,35.611a3.363,3.363,0,1,0-3.361-3.361,3.362,3.362,0,0,0,3.361,3.361" transform="translate(92.46 56.962)" fill="#878694"/>
      <path id="Path_105305" data-name="Path 105305" d="M56.314,35.774a3.461,3.461,0,1,0-3.462-3.462,3.462,3.462,0,0,0,3.462,3.462" transform="translate(104.225 56.897)" fill="#878694"/>
      <path id="Path_105306" data-name="Path 105306" d="M62.247,35.611a3.363,3.363,0,1,0-3.361-3.361,3.362,3.362,0,0,0,3.361,3.361" transform="translate(116.124 56.962)" fill="#878694"/>
      <path id="Path_105307" data-name="Path 105307" d="M68.117,35.282a3.165,3.165,0,1,0-3.165-3.165,3.166,3.166,0,0,0,3.165,3.165" transform="translate(128.086 57.094)" fill="#878694"/>
      <path id="Path_105308" data-name="Path 105308" d="M73.855,34.623a2.768,2.768,0,1,0-2.77-2.77,2.769,2.769,0,0,0,2.77,2.77" transform="translate(140.181 57.358)" fill="#878694"/>
      <path id="Path_105309" data-name="Path 105309" d="M79.559,33.883a2.324,2.324,0,1,0-2.324-2.324,2.324,2.324,0,0,0,2.324,2.324" transform="translate(152.309 57.652)" fill="#878694"/>
      <path id="Path_105310" data-name="Path 105310" d="M85.2,32.978a1.78,1.78,0,1,0-1.78-1.78,1.78,1.78,0,0,0,1.78,1.78" transform="translate(164.502 58.013)" fill="#878694"/>
      <path id="Path_105311" data-name="Path 105311" d="M90.837,32.074A1.236,1.236,0,1,0,89.6,30.837a1.235,1.235,0,0,0,1.236,1.236" transform="translate(176.695 58.374)" fill="#878694"/>
      <path id="Path_105312" data-name="Path 105312" d="M96.443,31.087a.643.643,0,1,0-.642-.642.643.643,0,0,0,.642.642" transform="translate(188.921 58.766)" fill="#878694"/>
      <path id="Path_105313" data-name="Path 105313" d="M102.082,30.18a.1.1,0,0,0,.1-.1.1.1,0,0,0-.2,0,.1.1,0,0,0,.1.1" transform="translate(201.114 59.129)" fill="#878694"/>
      <path id="Path_105314" data-name="Path 105314" d="M6.181,36.427a.247.247,0,1,0-.247-.247.246.246,0,0,0,.247.247" transform="translate(11.702 70.862)" fill="#878694"/>
      <path id="Path_105315" data-name="Path 105315" d="M12.64,37.579a.939.939,0,1,0-.939-.939.939.939,0,0,0,.939.939" transform="translate(23.075 70.403)" fill="#878694"/>
      <path id="Path_105316" data-name="Path 105316" d="M19.035,38.568A1.534,1.534,0,1,0,17.5,37.035a1.533,1.533,0,0,0,1.534,1.534" transform="translate(34.512 70.009)" fill="#878694"/>
      <path id="Path_105317" data-name="Path 105317" d="M25.461,39.636a2.176,2.176,0,1,0-2.176-2.176,2.177,2.177,0,0,0,2.176,2.176" transform="translate(45.918 69.583)" fill="#878694"/>
      <path id="Path_105318" data-name="Path 105318" d="M31.821,40.541A2.719,2.719,0,1,0,29.1,37.821a2.721,2.721,0,0,0,2.719,2.719" transform="translate(57.39 69.222)" fill="#878694"/>
      <path id="Path_105319" data-name="Path 105319" d="M38.182,41.446a3.263,3.263,0,1,0-3.263-3.263,3.265,3.265,0,0,0,3.263,3.263" transform="translate(68.861 68.861)" fill="#878694"/>
      <path id="Path_105320" data-name="Path 105320" d="M44.478,42.187a3.709,3.709,0,1,0-3.709-3.709,3.71,3.71,0,0,0,3.709,3.709" transform="translate(80.397 68.565)" fill="#878694"/>
      <path id="Path_105321" data-name="Path 105321" d="M50.675,42.679a4,4,0,1,0-4.006-4.006,4.006,4.006,0,0,0,4.006,4.006" transform="translate(92.032 68.368)" fill="#878694"/>
      <path id="Path_105322" data-name="Path 105322" d="M56.774,42.926a4.153,4.153,0,1,0-4.155-4.155,4.155,4.155,0,0,0,4.155,4.155" transform="translate(103.766 68.269)" fill="#878694"/>
      <path id="Path_105323" data-name="Path 105323" d="M62.707,42.763a4.055,4.055,0,1,0-4.054-4.054,4.055,4.055,0,0,0,4.054,4.054" transform="translate(115.665 68.334)" fill="#878694"/>
      <path id="Path_105324" data-name="Path 105324" d="M68.51,42.268a3.758,3.758,0,1,0-3.757-3.76,3.758,3.758,0,0,0,3.757,3.76" transform="translate(127.694 68.532)" fill="#878694"/>
      <path id="Path_105325" data-name="Path 105325" d="M74.216,41.53A3.314,3.314,0,1,0,70.9,38.216a3.313,3.313,0,0,0,3.314,3.314" transform="translate(139.82 68.827)" fill="#878694"/>
      <path id="Path_105326" data-name="Path 105326" d="M79.855,40.623a2.768,2.768,0,1,0-2.77-2.77,2.769,2.769,0,0,0,2.77,2.77" transform="translate(152.013 69.19)" fill="#878694"/>
      <path id="Path_105327" data-name="Path 105327" d="M85.494,39.717a2.225,2.225,0,1,0-2.226-2.226,2.227,2.227,0,0,0,2.226,2.226" transform="translate(164.206 69.549)" fill="#878694"/>
      <path id="Path_105328" data-name="Path 105328" d="M91.066,38.649a1.583,1.583,0,1,0-1.581-1.581,1.58,1.58,0,0,0,1.581,1.581" transform="translate(176.466 69.975)" fill="#878694"/>
      <path id="Path_105329" data-name="Path 105329" d="M96.674,37.661a.988.988,0,1,0-.99-.99.989.989,0,0,0,.99.99" transform="translate(188.69 70.371)" fill="#878694"/>
      <path id="Path_105330" data-name="Path 105330" d="M102.246,36.592a.346.346,0,1,0-.345-.348.348.348,0,0,0,.345.348" transform="translate(200.951 70.795)" fill="#878694"/>
      <path id="Path_105331" data-name="Path 105331" d="M6.344,42.84a.495.495,0,1,0-.493-.493.494.494,0,0,0,.493.493" transform="translate(11.538 82.529)" fill="#878694"/>
      <path id="Path_105332" data-name="Path 105332" d="M12.772,43.908a1.137,1.137,0,1,0-1.138-1.138,1.138,1.138,0,0,0,1.138,1.138" transform="translate(22.942 82.103)" fill="#878694"/>
      <path id="Path_105333" data-name="Path 105333" d="M19.232,45.06A1.829,1.829,0,1,0,17.4,43.229a1.832,1.832,0,0,0,1.831,1.831" transform="translate(34.315 81.643)" fill="#878694"/>
      <path id="Path_105334" data-name="Path 105334" d="M25.658,46.13a2.473,2.473,0,1,0-2.473-2.473,2.471,2.471,0,0,0,2.473,2.473" transform="translate(45.721 81.218)" fill="#878694"/>
      <path id="Path_105335" data-name="Path 105335" d="M32.084,47.2a3.115,3.115,0,1,0-3.115-3.115A3.114,3.114,0,0,0,32.084,47.2" transform="translate(57.127 80.792)" fill="#878694"/>
      <path id="Path_105336" data-name="Path 105336" d="M38.478,48.187a3.709,3.709,0,1,0-3.709-3.709,3.71,3.71,0,0,0,3.709,3.709" transform="translate(68.565 80.397)" fill="#878694"/>
      <path id="Path_105337" data-name="Path 105337" d="M44.839,49.092a4.253,4.253,0,1,0-4.253-4.253,4.254,4.254,0,0,0,4.253,4.253" transform="translate(80.036 80.036)" fill="#878694"/>
      <path id="Path_105338" data-name="Path 105338" d="M51.135,49.831a4.7,4.7,0,1,0-4.7-4.7,4.7,4.7,0,0,0,4.7,4.7" transform="translate(91.573 79.74)" fill="#878694"/>
      <path id="Path_105339" data-name="Path 105339" d="M57.233,50.078a4.846,4.846,0,1,0-4.847-4.847,4.846,4.846,0,0,0,4.847,4.847" transform="translate(103.306 79.642)" fill="#878694"/>
      <path id="Path_105340" data-name="Path 105340" d="M63.135,49.831a4.7,4.7,0,1,0-4.7-4.7,4.7,4.7,0,0,0,4.7,4.7" transform="translate(115.237 79.74)" fill="#878694"/>
      <path id="Path_105341" data-name="Path 105341" d="M68.871,49.173a4.3,4.3,0,1,0-4.3-4.3,4.3,4.3,0,0,0,4.3,4.3" transform="translate(127.333 80.003)" fill="#878694"/>
      <path id="Path_105342" data-name="Path 105342" d="M74.51,48.268a3.758,3.758,0,1,0-3.757-3.76,3.758,3.758,0,0,0,3.757,3.76" transform="translate(139.526 80.364)" fill="#878694"/>
      <path id="Path_105343" data-name="Path 105343" d="M80.117,47.282a3.165,3.165,0,1,0-3.165-3.165,3.166,3.166,0,0,0,3.165,3.165" transform="translate(151.751 80.758)" fill="#878694"/>
      <path id="Path_105344" data-name="Path 105344" d="M85.689,46.212a2.522,2.522,0,1,0-2.52-2.523,2.523,2.523,0,0,0,2.52,2.523" transform="translate(164.011 81.184)" fill="#878694"/>
      <path id="Path_105345" data-name="Path 105345" d="M91.263,45.142a1.878,1.878,0,1,0-1.878-1.878,1.878,1.878,0,0,0,1.878,1.878" transform="translate(176.269 81.612)" fill="#878694"/>
      <path id="Path_105346" data-name="Path 105346" d="M96.837,44.074A1.236,1.236,0,1,0,95.6,42.837a1.235,1.235,0,0,0,1.236,1.236" transform="translate(188.527 82.038)" fill="#878694"/>
      <path id="Path_105347" data-name="Path 105347" d="M102.378,42.922a.544.544,0,1,0-.544-.544.544.544,0,0,0,.544.544" transform="translate(200.818 82.497)" fill="#878694"/>
      <path id="Path_105348" data-name="Path 105348" d="M108.051,42.1a.052.052,0,0,0,.051-.051.051.051,0,0,0-.1,0,.052.052,0,0,0,.051.051" transform="translate(212.978 82.825)" fill="#878694"/>
      <path id="Path_105349" data-name="Path 105349" d="M.051,48.1A.052.052,0,0,0,.1,48.048.05.05,0,0,0,.051,48,.05.05,0,0,0,0,48.048a.052.052,0,0,0,.051.051" transform="translate(0 94.657)" fill="#878694"/>
      <path id="Path_105350" data-name="Path 105350" d="M6.411,49a.593.593,0,1,0-.594-.594A.594.594,0,0,0,6.411,49" transform="translate(11.471 94.296)" fill="#878694"/>
      <path id="Path_105351" data-name="Path 105351" d="M12.871,50.155a1.285,1.285,0,1,0-1.287-1.287,1.287,1.287,0,0,0,1.287,1.287" transform="translate(22.844 93.836)" fill="#878694"/>
      <path id="Path_105352" data-name="Path 105352" d="M19.328,51.307a1.978,1.978,0,1,0-1.976-1.976,1.976,1.976,0,0,0,1.976,1.976" transform="translate(34.218 93.377)" fill="#878694"/>
      <path id="Path_105353" data-name="Path 105353" d="M25.788,52.459a2.67,2.67,0,1,0-2.669-2.669,2.669,2.669,0,0,0,2.669,2.669" transform="translate(45.591 92.918)" fill="#878694"/>
      <path id="Path_105354" data-name="Path 105354" d="M32.247,53.611a3.363,3.363,0,1,0-3.361-3.361,3.362,3.362,0,0,0,3.361,3.361" transform="translate(56.964 92.458)" fill="#878694"/>
      <path id="Path_105355" data-name="Path 105355" d="M38.675,54.679a4,4,0,1,0-4.006-4.006,4.006,4.006,0,0,0,4.006,4.006" transform="translate(68.368 92.032)" fill="#878694"/>
      <path id="Path_105356" data-name="Path 105356" d="M45.135,55.831a4.7,4.7,0,1,0-4.7-4.7,4.7,4.7,0,0,0,4.7,4.7" transform="translate(79.74 91.573)" fill="#878694"/>
      <path id="Path_105357" data-name="Path 105357" d="M51.5,56.735a5.241,5.241,0,1,0-5.243-5.243A5.244,5.244,0,0,0,51.5,56.735" transform="translate(91.212 91.212)" fill="#878694"/>
      <path id="Path_105358" data-name="Path 105358" d="M57.691,57.23a5.538,5.538,0,1,0-5.537-5.537,5.537,5.537,0,0,0,5.537,5.537" transform="translate(102.849 91.015)" fill="#878694"/>
      <path id="Path_105359" data-name="Path 105359" d="M63.527,56.819a5.292,5.292,0,1,0-5.29-5.29,5.29,5.29,0,0,0,5.29,5.29" transform="translate(114.844 91.178)" fill="#878694"/>
      <path id="Path_105360" data-name="Path 105360" d="M69.166,55.915a4.748,4.748,0,1,0-4.746-4.746,4.746,4.746,0,0,0,4.746,4.746" transform="translate(127.037 91.539)" fill="#878694"/>
      <path id="Path_105361" data-name="Path 105361" d="M74.74,54.845a4.1,4.1,0,1,0-4.1-4.1,4.1,4.1,0,0,0,4.1,4.1" transform="translate(139.295 91.967)" fill="#878694"/>
      <path id="Path_105362" data-name="Path 105362" d="M80.281,53.693a3.412,3.412,0,1,0-3.412-3.412,3.412,3.412,0,0,0,3.412,3.412" transform="translate(151.587 92.426)" fill="#878694"/>
      <path id="Path_105363" data-name="Path 105363" d="M85.821,52.541A2.719,2.719,0,1,0,83.1,49.821a2.721,2.721,0,0,0,2.719,2.719" transform="translate(163.879 92.886)" fill="#878694"/>
      <path id="Path_105364" data-name="Path 105364" d="M91.4,51.473A2.077,2.077,0,1,0,89.318,49.4,2.078,2.078,0,0,0,91.4,51.473" transform="translate(176.137 93.312)" fill="#878694"/>
      <path id="Path_105365" data-name="Path 105365" d="M96.936,50.321a1.385,1.385,0,1,0-1.385-1.385,1.386,1.386,0,0,0,1.385,1.385" transform="translate(188.428 93.771)" fill="#878694"/>
      <path id="Path_105366" data-name="Path 105366" d="M102.477,49.169a.692.692,0,1,0-.693-.692.691.691,0,0,0,.693.692" transform="translate(200.72 94.231)" fill="#878694"/>
      <path id="Path_105367" data-name="Path 105367" d="M108.082,48.18a.1.1,0,0,0,.1-.1.1.1,0,1,0-.2,0,.1.1,0,0,0,.1.1" transform="translate(212.946 94.625)" fill="#878694"/>
      <path id="Path_105368" data-name="Path 105368" d="M.051,54.1A.052.052,0,0,0,.1,54.048.05.05,0,0,0,.051,54,.05.05,0,0,0,0,54.048a.052.052,0,0,0,.051.051" transform="translate(0 106.489)" fill="#878694"/>
      <path id="Path_105369" data-name="Path 105369" d="M6.443,55.087a.643.643,0,1,0-.642-.642.643.643,0,0,0,.642.642" transform="translate(11.44 106.095)" fill="#878694"/>
      <path id="Path_105370" data-name="Path 105370" d="M12.936,56.321a1.385,1.385,0,1,0-1.385-1.385,1.386,1.386,0,0,0,1.385,1.385" transform="translate(22.779 105.603)" fill="#878694"/>
      <path id="Path_105371" data-name="Path 105371" d="M19.4,57.473A2.077,2.077,0,1,0,17.318,55.4,2.078,2.078,0,0,0,19.4,57.473" transform="translate(34.151 105.144)" fill="#878694"/>
      <path id="Path_105372" data-name="Path 105372" d="M25.855,58.623a2.768,2.768,0,1,0-2.77-2.77,2.769,2.769,0,0,0,2.77,2.77" transform="translate(45.524 104.686)" fill="#878694"/>
      <path id="Path_105373" data-name="Path 105373" d="M32.314,59.774a3.461,3.461,0,1,0-3.462-3.462,3.462,3.462,0,0,0,3.462,3.462" transform="translate(56.897 104.225)" fill="#878694"/>
      <path id="Path_105374" data-name="Path 105374" d="M38.774,60.926a4.153,4.153,0,1,0-4.155-4.155,4.155,4.155,0,0,0,4.155,4.155" transform="translate(68.269 103.766)" fill="#878694"/>
      <path id="Path_105375" data-name="Path 105375" d="M45.233,62.078a4.846,4.846,0,1,0-4.847-4.844,4.845,4.845,0,0,0,4.847,4.844" transform="translate(79.642 103.306)" fill="#878694"/>
      <path id="Path_105376" data-name="Path 105376" d="M51.691,63.23a5.538,5.538,0,1,0-5.537-5.537,5.537,5.537,0,0,0,5.537,5.537" transform="translate(91.016 102.847)" fill="#878694"/>
      <path id="Path_105377" data-name="Path 105377" d="M58.02,64.053a6.033,6.033,0,1,0-6.033-6.033,6.034,6.034,0,0,0,6.033,6.033" transform="translate(102.519 102.519)" fill="#878694"/>
      <path id="Path_105378" data-name="Path 105378" d="M63.724,63.312a5.587,5.587,0,1,0-5.587-5.587,5.589,5.589,0,0,0,5.587,5.587" transform="translate(114.647 102.815)" fill="#878694"/>
      <path id="Path_105379" data-name="Path 105379" d="M69.265,62.16a4.895,4.895,0,1,0-4.895-4.895,4.893,4.893,0,0,0,4.895,4.895" transform="translate(126.939 103.275)" fill="#878694"/>
      <path id="Path_105380" data-name="Path 105380" d="M74.805,61.008a4.2,4.2,0,1,0-4.2-4.2,4.2,4.2,0,0,0,4.2,4.2" transform="translate(139.23 103.734)" fill="#878694"/>
      <path id="Path_105381" data-name="Path 105381" d="M80.346,59.858a3.511,3.511,0,1,0-3.51-3.51,3.511,3.511,0,0,0,3.51,3.51" transform="translate(151.522 104.192)" fill="#878694"/>
      <path id="Path_105382" data-name="Path 105382" d="M85.886,58.706a2.819,2.819,0,1,0-2.817-2.817,2.818,2.818,0,0,0,2.817,2.817" transform="translate(163.813 104.651)" fill="#878694"/>
      <path id="Path_105383" data-name="Path 105383" d="M91.427,57.554A2.126,2.126,0,1,0,89.3,55.429a2.125,2.125,0,0,0,2.125,2.125" transform="translate(176.105 105.11)" fill="#878694"/>
      <path id="Path_105384" data-name="Path 105384" d="M96.967,56.4a1.434,1.434,0,1,0-1.432-1.433A1.433,1.433,0,0,0,96.967,56.4" transform="translate(188.397 105.57)" fill="#878694"/>
      <path id="Path_105385" data-name="Path 105385" d="M102.508,55.25a.742.742,0,1,0-.74-.743.743.743,0,0,0,.74.743" transform="translate(200.688 106.029)" fill="#878694"/>
      <path id="Path_105386" data-name="Path 105386" d="M108.082,54.18a.1.1,0,0,0,.1-.1.1.1,0,1,0-.2,0,.1.1,0,0,0,.1.1" transform="translate(212.946 106.457)" fill="#878694"/>
      <path id="Path_105387" data-name="Path 105387" d="M.051,60.1A.052.052,0,0,0,.1,60.048.05.05,0,0,0,.051,60,.05.05,0,0,0,0,60.048a.052.052,0,0,0,.051.051" transform="translate(0 118.321)" fill="#878694"/>
      <path id="Path_105388" data-name="Path 105388" d="M6.443,61.087a.643.643,0,1,0-.642-.642.643.643,0,0,0,.642.642" transform="translate(11.44 117.927)" fill="#878694"/>
      <path id="Path_105389" data-name="Path 105389" d="M12.9,62.237A1.334,1.334,0,1,0,11.568,60.9,1.334,1.334,0,0,0,12.9,62.237" transform="translate(22.812 117.469)" fill="#878694"/>
      <path id="Path_105390" data-name="Path 105390" d="M19.362,63.389a2.027,2.027,0,1,0-2.027-2.027,2.026,2.026,0,0,0,2.027,2.027" transform="translate(34.185 117.01)" fill="#878694"/>
      <path id="Path_105391" data-name="Path 105391" d="M25.788,64.459a2.67,2.67,0,1,0-2.669-2.669,2.669,2.669,0,0,0,2.669,2.669" transform="translate(45.591 116.582)" fill="#878694"/>
      <path id="Path_105392" data-name="Path 105392" d="M32.247,65.611a3.363,3.363,0,1,0-3.361-3.361,3.362,3.362,0,0,0,3.361,3.361" transform="translate(56.964 116.122)" fill="#878694"/>
      <path id="Path_105393" data-name="Path 105393" d="M38.707,66.763a4.055,4.055,0,1,0-4.054-4.054,4.055,4.055,0,0,0,4.054,4.054" transform="translate(68.336 115.663)" fill="#878694"/>
      <path id="Path_105394" data-name="Path 105394" d="M45.135,67.831a4.7,4.7,0,1,0-4.7-4.7,4.7,4.7,0,0,0,4.7,4.7" transform="translate(79.74 115.237)" fill="#878694"/>
      <path id="Path_105395" data-name="Path 105395" d="M51.527,68.819a5.292,5.292,0,1,0-5.29-5.29,5.29,5.29,0,0,0,5.29,5.29" transform="translate(91.18 114.842)" fill="#878694"/>
      <path id="Path_105396" data-name="Path 105396" d="M57.724,69.312a5.587,5.587,0,1,0-5.587-5.587,5.589,5.589,0,0,0,5.587,5.587" transform="translate(102.815 114.647)" fill="#878694"/>
      <path id="Path_105397" data-name="Path 105397" d="M63.561,68.9a5.341,5.341,0,1,0-5.341-5.341A5.342,5.342,0,0,0,63.561,68.9" transform="translate(114.811 114.811)" fill="#878694"/>
      <path id="Path_105398" data-name="Path 105398" d="M69.166,67.915a4.748,4.748,0,1,0-4.746-4.746,4.746,4.746,0,0,0,4.746,4.746" transform="translate(127.037 115.203)" fill="#878694"/>
      <path id="Path_105399" data-name="Path 105399" d="M74.74,66.845a4.1,4.1,0,1,0-4.1-4.1,4.1,4.1,0,0,0,4.1,4.1" transform="translate(139.295 115.631)" fill="#878694"/>
      <path id="Path_105400" data-name="Path 105400" d="M80.281,65.693a3.412,3.412,0,1,0-3.412-3.412,3.412,3.412,0,0,0,3.412,3.412" transform="translate(151.587 116.091)" fill="#878694"/>
      <path id="Path_105401" data-name="Path 105401" d="M85.855,64.623a2.768,2.768,0,1,0-2.77-2.77,2.769,2.769,0,0,0,2.77,2.77" transform="translate(163.845 116.519)" fill="#878694"/>
      <path id="Path_105402" data-name="Path 105402" d="M91.4,63.473A2.077,2.077,0,1,0,89.318,61.4,2.078,2.078,0,0,0,91.4,63.473" transform="translate(176.137 116.976)" fill="#878694"/>
      <path id="Path_105403" data-name="Path 105403" d="M96.936,62.321a1.385,1.385,0,1,0-1.385-1.385,1.386,1.386,0,0,0,1.385,1.385" transform="translate(188.428 117.436)" fill="#878694"/>
      <path id="Path_105404" data-name="Path 105404" d="M102.477,61.169a.692.692,0,1,0-.693-.692.691.691,0,0,0,.693.692" transform="translate(200.72 117.895)" fill="#878694"/>
      <path id="Path_105405" data-name="Path 105405" d="M108.082,60.18a.1.1,0,0,0,.1-.1.1.1,0,1,0-.2,0,.1.1,0,0,0,.1.1" transform="translate(212.946 118.289)" fill="#878694"/>
      <path id="Path_105406" data-name="Path 105406" d="M6.344,66.84a.495.495,0,1,0-.493-.493.494.494,0,0,0,.493.493" transform="translate(11.538 129.857)" fill="#878694"/>
      <path id="Path_105407" data-name="Path 105407" d="M12.8,67.992a1.187,1.187,0,1,0-1.186-1.186A1.185,1.185,0,0,0,12.8,67.992" transform="translate(22.911 129.398)" fill="#878694"/>
      <path id="Path_105408" data-name="Path 105408" d="M19.232,69.06A1.829,1.829,0,1,0,17.4,67.229a1.832,1.832,0,0,0,1.831,1.831" transform="translate(34.315 128.972)" fill="#878694"/>
      <path id="Path_105409" data-name="Path 105409" d="M25.691,70.212a2.522,2.522,0,1,0-2.523-2.523,2.523,2.523,0,0,0,2.523,2.523" transform="translate(45.688 128.512)" fill="#878694"/>
      <path id="Path_105410" data-name="Path 105410" d="M32.117,71.282a3.165,3.165,0,1,0-3.165-3.165,3.166,3.166,0,0,0,3.165,3.165" transform="translate(57.094 128.086)" fill="#878694"/>
      <path id="Path_105411" data-name="Path 105411" d="M38.51,72.268a3.758,3.758,0,1,0-3.757-3.757,3.757,3.757,0,0,0,3.757,3.757" transform="translate(68.534 127.692)" fill="#878694"/>
      <path id="Path_105412" data-name="Path 105412" d="M44.872,73.173a4.3,4.3,0,1,0-4.3-4.3,4.3,4.3,0,0,0,4.3,4.3" transform="translate(80.003 127.331)" fill="#878694"/>
      <path id="Path_105413" data-name="Path 105413" d="M51.166,73.915a4.748,4.748,0,1,0-4.746-4.746,4.746,4.746,0,0,0,4.746,4.746" transform="translate(91.541 127.035)" fill="#878694"/>
      <path id="Path_105414" data-name="Path 105414" d="M57.265,74.16a4.895,4.895,0,1,0-4.895-4.895,4.893,4.893,0,0,0,4.895,4.895" transform="translate(103.275 126.939)" fill="#878694"/>
      <path id="Path_105415" data-name="Path 105415" d="M63.166,73.915a4.748,4.748,0,1,0-4.746-4.746,4.746,4.746,0,0,0,4.746,4.746" transform="translate(115.205 127.035)" fill="#878694"/>
      <path id="Path_105416" data-name="Path 105416" d="M68.9,73.255A4.351,4.351,0,1,0,64.553,68.9,4.351,4.351,0,0,0,68.9,73.255" transform="translate(127.3 127.3)" fill="#878694"/>
      <path id="Path_105417" data-name="Path 105417" d="M74.543,72.35a3.807,3.807,0,1,0-3.807-3.807,3.807,3.807,0,0,0,3.807,3.807" transform="translate(139.493 127.66)" fill="#878694"/>
      <path id="Path_105418" data-name="Path 105418" d="M80.149,71.363a3.214,3.214,0,1,0-3.213-3.213,3.213,3.213,0,0,0,3.213,3.213" transform="translate(151.719 128.053)" fill="#878694"/>
      <path id="Path_105419" data-name="Path 105419" d="M85.723,70.294a2.571,2.571,0,1,0-2.571-2.571,2.57,2.57,0,0,0,2.571,2.571" transform="translate(163.977 128.481)" fill="#878694"/>
      <path id="Path_105420" data-name="Path 105420" d="M91.263,69.142a1.878,1.878,0,1,0-1.878-1.878,1.879,1.879,0,0,0,1.878,1.878" transform="translate(176.269 128.94)" fill="#878694"/>
      <path id="Path_105421" data-name="Path 105421" d="M96.837,68.074A1.236,1.236,0,1,0,95.6,66.837a1.235,1.235,0,0,0,1.236,1.236" transform="translate(188.527 129.366)" fill="#878694"/>
      <path id="Path_105422" data-name="Path 105422" d="M102.378,66.922a.544.544,0,1,0-.544-.544.544.544,0,0,0,.544.544" transform="translate(200.818 129.826)" fill="#878694"/>
      <path id="Path_105423" data-name="Path 105423" d="M108.051,66.1a.052.052,0,0,0,.051-.051.051.051,0,0,0-.1,0,.052.052,0,0,0,.051.051" transform="translate(212.978 130.153)" fill="#878694"/>
      <path id="Path_105424" data-name="Path 105424" d="M6.214,72.511a.3.3,0,1,0-.3-.3.3.3,0,0,0,.3.3" transform="translate(11.668 141.822)" fill="#878694"/>
      <path id="Path_105425" data-name="Path 105425" d="M12.64,73.579a.939.939,0,1,0-.939-.939.939.939,0,0,0,.939.939" transform="translate(23.075 141.396)" fill="#878694"/>
      <path id="Path_105426" data-name="Path 105426" d="M19.066,74.649a1.583,1.583,0,1,0-1.581-1.581,1.58,1.58,0,0,0,1.581,1.581" transform="translate(34.481 140.968)" fill="#878694"/>
      <path id="Path_105427" data-name="Path 105427" d="M25.461,75.636a2.176,2.176,0,1,0-2.176-2.176,2.177,2.177,0,0,0,2.176,2.176" transform="translate(45.918 140.575)" fill="#878694"/>
      <path id="Path_105428" data-name="Path 105428" d="M31.855,76.623a2.768,2.768,0,1,0-2.77-2.77,2.769,2.769,0,0,0,2.77,2.77" transform="translate(57.356 140.183)" fill="#878694"/>
      <path id="Path_105429" data-name="Path 105429" d="M38.216,77.528A3.312,3.312,0,1,0,34.9,74.214a3.313,3.313,0,0,0,3.314,3.314" transform="translate(68.827 139.822)" fill="#878694"/>
      <path id="Path_105430" data-name="Path 105430" d="M44.51,78.268a3.758,3.758,0,1,0-3.757-3.757,3.757,3.757,0,0,0,3.757,3.757" transform="translate(80.366 139.524)" fill="#878694"/>
      <path id="Path_105431" data-name="Path 105431" d="M50.74,78.845a4.1,4.1,0,1,0-4.1-4.1,4.1,4.1,0,0,0,4.1,4.1" transform="translate(91.967 139.295)" fill="#878694"/>
      <path id="Path_105432" data-name="Path 105432" d="M56.805,79.008a4.2,4.2,0,1,0-4.2-4.2,4.2,4.2,0,0,0,4.2,4.2" transform="translate(103.734 139.23)" fill="#878694"/>
      <path id="Path_105433" data-name="Path 105433" d="M62.74,78.845a4.1,4.1,0,1,0-4.1-4.1,4.1,4.1,0,0,0,4.1,4.1" transform="translate(115.631 139.295)" fill="#878694"/>
      <path id="Path_105434" data-name="Path 105434" d="M68.543,78.35a3.807,3.807,0,1,0-3.807-3.807,3.807,3.807,0,0,0,3.807,3.807" transform="translate(127.66 139.493)" fill="#878694"/>
      <path id="Path_105435" data-name="Path 105435" d="M74.247,77.611a3.363,3.363,0,1,0-3.361-3.361,3.362,3.362,0,0,0,3.361,3.361" transform="translate(139.788 139.786)" fill="#878694"/>
      <path id="Path_105436" data-name="Path 105436" d="M79.886,76.706a2.819,2.819,0,1,0-2.817-2.817,2.818,2.818,0,0,0,2.817,2.817" transform="translate(151.981 140.147)" fill="#878694"/>
      <path id="Path_105437" data-name="Path 105437" d="M85.494,75.717a2.225,2.225,0,1,0-2.226-2.226,2.227,2.227,0,0,0,2.226,2.226" transform="translate(164.206 140.542)" fill="#878694"/>
      <path id="Path_105438" data-name="Path 105438" d="M91.1,74.731A1.632,1.632,0,1,0,89.468,73.1,1.632,1.632,0,0,0,91.1,74.731" transform="translate(176.432 140.936)" fill="#878694"/>
      <path id="Path_105439" data-name="Path 105439" d="M96.674,73.661a.988.988,0,1,0-.99-.99.989.989,0,0,0,.99.99" transform="translate(188.69 141.364)" fill="#878694"/>
      <path id="Path_105440" data-name="Path 105440" d="M102.246,72.592a.346.346,0,1,0-.345-.345.348.348,0,0,0,.345.345" transform="translate(200.951 141.788)" fill="#878694"/>
      <path id="Path_105441" data-name="Path 105441" d="M6.082,78.18a.1.1,0,0,0,.1-.1.1.1,0,0,0-.2,0,.1.1,0,0,0,.1.1" transform="translate(11.801 153.786)" fill="#878694"/>
      <path id="Path_105442" data-name="Path 105442" d="M12.443,79.087a.643.643,0,1,0-.642-.642.643.643,0,0,0,.642.642" transform="translate(23.272 153.423)" fill="#878694"/>
      <path id="Path_105443" data-name="Path 105443" d="M18.837,80.074A1.236,1.236,0,1,0,17.6,78.837a1.235,1.235,0,0,0,1.236,1.236" transform="translate(34.709 153.031)" fill="#878694"/>
      <path id="Path_105444" data-name="Path 105444" d="M25.2,80.978a1.78,1.78,0,1,0-1.78-1.78,1.78,1.78,0,0,0,1.78,1.78" transform="translate(46.181 152.67)" fill="#878694"/>
      <path id="Path_105445" data-name="Path 105445" d="M31.559,81.883a2.324,2.324,0,1,0-2.324-2.324,2.324,2.324,0,0,0,2.324,2.324" transform="translate(57.652 152.309)" fill="#878694"/>
      <path id="Path_105446" data-name="Path 105446" d="M37.855,82.623a2.768,2.768,0,1,0-2.77-2.77,2.769,2.769,0,0,0,2.77,2.77" transform="translate(69.188 152.015)" fill="#878694"/>
      <path id="Path_105447" data-name="Path 105447" d="M44.117,83.282a3.165,3.165,0,1,0-3.165-3.165,3.166,3.166,0,0,0,3.165,3.165" transform="translate(80.758 151.751)" fill="#878694"/>
      <path id="Path_105448" data-name="Path 105448" d="M50.281,83.693a3.412,3.412,0,1,0-3.412-3.412,3.412,3.412,0,0,0,3.412,3.412" transform="translate(92.426 151.587)" fill="#878694"/>
      <path id="Path_105449" data-name="Path 105449" d="M56.346,83.858a3.511,3.511,0,1,0-3.51-3.51,3.511,3.511,0,0,0,3.51,3.51" transform="translate(104.193 151.52)" fill="#878694"/>
      <path id="Path_105450" data-name="Path 105450" d="M62.281,83.693a3.412,3.412,0,1,0-3.412-3.412,3.412,3.412,0,0,0,3.412,3.412" transform="translate(116.091 151.587)" fill="#878694"/>
      <path id="Path_105451" data-name="Path 105451" d="M68.149,83.363a3.214,3.214,0,1,0-3.213-3.213,3.213,3.213,0,0,0,3.213,3.213" transform="translate(128.055 151.717)" fill="#878694"/>
      <path id="Path_105452" data-name="Path 105452" d="M73.886,82.706a2.819,2.819,0,1,0-2.817-2.817,2.818,2.818,0,0,0,2.817,2.817" transform="translate(140.149 151.979)" fill="#878694"/>
      <path id="Path_105453" data-name="Path 105453" d="M79.593,81.964a2.373,2.373,0,1,0-2.375-2.375,2.374,2.374,0,0,0,2.375,2.375" transform="translate(152.275 152.275)" fill="#878694"/>
      <path id="Path_105454" data-name="Path 105454" d="M85.232,81.06A1.829,1.829,0,1,0,83.4,79.229a1.832,1.832,0,0,0,1.831,1.831" transform="translate(164.468 152.636)" fill="#878694"/>
      <path id="Path_105455" data-name="Path 105455" d="M90.871,80.155a1.285,1.285,0,1,0-1.287-1.287,1.287,1.287,0,0,0,1.287,1.287" transform="translate(176.661 152.997)" fill="#878694"/>
      <path id="Path_105456" data-name="Path 105456" d="M96.476,79.169a.692.692,0,1,0-.692-.692.691.691,0,0,0,.692.692" transform="translate(188.888 153.391)" fill="#878694"/>
      <path id="Path_105457" data-name="Path 105457" d="M102.082,78.18a.1.1,0,0,0,.1-.1.1.1,0,0,0-.2,0,.1.1,0,0,0,.1.1" transform="translate(201.114 153.786)" fill="#878694"/>
      <path id="Path_105458" data-name="Path 105458" d="M12.214,84.511a.3.3,0,1,0-.3-.3.3.3,0,0,0,.3.3" transform="translate(23.501 165.486)" fill="#878694"/>
      <path id="Path_105459" data-name="Path 105459" d="M18.542,85.332a.791.791,0,1,0-.791-.791.79.79,0,0,0,.791.791" transform="translate(35.005 165.158)" fill="#878694"/>
      <path id="Path_105460" data-name="Path 105460" d="M24.9,86.237A1.334,1.334,0,1,0,23.568,84.9,1.334,1.334,0,0,0,24.9,86.237" transform="translate(46.477 164.798)" fill="#878694"/>
      <path id="Path_105461" data-name="Path 105461" d="M31.2,86.978a1.78,1.78,0,1,0-1.78-1.78,1.78,1.78,0,0,0,1.78,1.78" transform="translate(58.013 164.502)" fill="#878694"/>
      <path id="Path_105462" data-name="Path 105462" d="M37.494,87.717a2.225,2.225,0,1,0-2.226-2.226,2.227,2.227,0,0,0,2.226,2.226" transform="translate(69.549 164.206)" fill="#878694"/>
      <path id="Path_105463" data-name="Path 105463" d="M43.689,88.212a2.522,2.522,0,1,0-2.52-2.523,2.523,2.523,0,0,0,2.52,2.523" transform="translate(81.186 164.009)" fill="#878694"/>
      <path id="Path_105464" data-name="Path 105464" d="M49.821,88.541A2.719,2.719,0,1,0,47.1,85.821a2.721,2.721,0,0,0,2.719,2.719" transform="translate(92.886 163.879)" fill="#878694"/>
      <path id="Path_105465" data-name="Path 105465" d="M55.886,88.706a2.819,2.819,0,1,0-2.817-2.817,2.818,2.818,0,0,0,2.817,2.817" transform="translate(104.653 163.812)" fill="#878694"/>
      <path id="Path_105466" data-name="Path 105466" d="M61.855,88.623a2.768,2.768,0,1,0-2.77-2.77,2.769,2.769,0,0,0,2.77,2.77" transform="translate(116.517 163.847)" fill="#878694"/>
      <path id="Path_105467" data-name="Path 105467" d="M67.723,88.294a2.571,2.571,0,1,0-2.571-2.571,2.57,2.57,0,0,0,2.571,2.571" transform="translate(128.481 163.977)" fill="#878694"/>
      <path id="Path_105468" data-name="Path 105468" d="M73.494,87.717a2.225,2.225,0,1,0-2.226-2.226,2.227,2.227,0,0,0,2.226,2.226" transform="translate(140.542 164.206)" fill="#878694"/>
      <path id="Path_105469" data-name="Path 105469" d="M79.232,87.06A1.829,1.829,0,1,0,77.4,85.229a1.832,1.832,0,0,0,1.831,1.831" transform="translate(152.636 164.468)" fill="#878694"/>
      <path id="Path_105470" data-name="Path 105470" d="M84.936,86.321a1.385,1.385,0,1,0-1.385-1.385,1.386,1.386,0,0,0,1.385,1.385" transform="translate(164.764 164.764)" fill="#878694"/>
      <path id="Path_105471" data-name="Path 105471" d="M90.575,85.416a.841.841,0,1,0-.841-.841.842.842,0,0,0,.841.841" transform="translate(176.957 165.125)" fill="#878694"/>
      <path id="Path_105472" data-name="Path 105472" d="M96.214,84.511a.3.3,0,1,0-.3-.3.3.3,0,0,0,.3.3" transform="translate(189.15 165.486)" fill="#878694"/>
      <path id="Path_105473" data-name="Path 105473" d="M18.246,90.592a.346.346,0,1,0-.345-.348.348.348,0,0,0,.345.348" transform="translate(35.301 177.284)" fill="#878694"/>
      <path id="Path_105474" data-name="Path 105474" d="M24.575,91.416a.841.841,0,1,0-.841-.841.842.842,0,0,0,.841.841" transform="translate(46.804 176.957)" fill="#878694"/>
      <path id="Path_105475" data-name="Path 105475" d="M30.837,92.074A1.236,1.236,0,1,0,29.6,90.837a1.235,1.235,0,0,0,1.236,1.236" transform="translate(58.374 176.695)" fill="#878694"/>
      <path id="Path_105476" data-name="Path 105476" d="M37.066,92.649a1.583,1.583,0,1,0-1.581-1.581,1.58,1.58,0,0,0,1.581,1.581" transform="translate(69.977 176.464)" fill="#878694"/>
      <path id="Path_105477" data-name="Path 105477" d="M43.263,93.142a1.878,1.878,0,1,0-1.878-1.878,1.878,1.878,0,0,0,1.878,1.878" transform="translate(81.612 176.269)" fill="#878694"/>
      <path id="Path_105478" data-name="Path 105478" d="M49.4,93.473A2.077,2.077,0,1,0,47.318,91.4,2.078,2.078,0,0,0,49.4,93.473" transform="translate(93.312 176.137)" fill="#878694"/>
      <path id="Path_105479" data-name="Path 105479" d="M55.427,93.554A2.126,2.126,0,1,0,53.3,91.429a2.125,2.125,0,0,0,2.125,2.125" transform="translate(105.112 176.103)" fill="#878694"/>
      <path id="Path_105480" data-name="Path 105480" d="M61.4,93.473A2.077,2.077,0,1,0,59.318,91.4,2.078,2.078,0,0,0,61.4,93.473" transform="translate(116.976 176.137)" fill="#878694"/>
      <path id="Path_105481" data-name="Path 105481" d="M67.263,93.142a1.878,1.878,0,1,0-1.878-1.878,1.879,1.879,0,0,0,1.878,1.878" transform="translate(128.94 176.269)" fill="#878694"/>
      <path id="Path_105482" data-name="Path 105482" d="M73.1,92.731A1.632,1.632,0,1,0,71.468,91.1,1.632,1.632,0,0,0,73.1,92.731" transform="translate(140.936 176.432)" fill="#878694"/>
      <path id="Path_105483" data-name="Path 105483" d="M78.871,92.155a1.285,1.285,0,1,0-1.287-1.287,1.287,1.287,0,0,0,1.287,1.287" transform="translate(152.997 176.661)" fill="#878694"/>
      <path id="Path_105484" data-name="Path 105484" d="M84.575,91.416a.841.841,0,1,0-.841-.841.842.842,0,0,0,.841.841" transform="translate(165.125 176.957)" fill="#878694"/>
      <path id="Path_105485" data-name="Path 105485" d="M90.279,90.675a.4.4,0,1,0-.4-.4.4.4,0,0,0,.4.4" transform="translate(177.253 177.253)" fill="#878694"/>
      <path id="Path_105486" data-name="Path 105486" d="M96.051,90.1a.05.05,0,0,0,.051-.051.051.051,0,0,0-.1,0,.05.05,0,0,0,.051.051" transform="translate(189.314 177.482)" fill="#878694"/>
      <path id="Path_105487" data-name="Path 105487" d="M24.214,96.511a.3.3,0,1,0-.3-.3.3.3,0,0,0,.3.3" transform="translate(47.165 189.15)" fill="#878694"/>
      <path id="Path_105488" data-name="Path 105488" d="M30.443,97.087a.643.643,0,1,0-.642-.642.643.643,0,0,0,.642.642" transform="translate(58.768 188.919)" fill="#878694"/>
      <path id="Path_105489" data-name="Path 105489" d="M36.674,97.661a.988.988,0,1,0-.99-.99.989.989,0,0,0,.99.99" transform="translate(70.369 188.692)" fill="#878694"/>
      <path id="Path_105490" data-name="Path 105490" d="M42.837,98.074A1.236,1.236,0,1,0,41.6,96.837a1.235,1.235,0,0,0,1.236,1.236" transform="translate(82.038 188.527)" fill="#878694"/>
      <path id="Path_105491" data-name="Path 105491" d="M48.936,98.321a1.385,1.385,0,1,0-1.385-1.385,1.386,1.386,0,0,0,1.385,1.385" transform="translate(93.771 188.428)" fill="#878694"/>
      <path id="Path_105492" data-name="Path 105492" d="M54.968,98.4a1.434,1.434,0,1,0-1.433-1.433A1.433,1.433,0,0,0,54.968,98.4" transform="translate(105.572 188.395)" fill="#878694"/>
      <path id="Path_105493" data-name="Path 105493" d="M60.936,98.321a1.385,1.385,0,1,0-1.385-1.385,1.386,1.386,0,0,0,1.385,1.385" transform="translate(117.436 188.428)" fill="#878694"/>
      <path id="Path_105494" data-name="Path 105494" d="M66.837,98.074A1.236,1.236,0,1,0,65.6,96.837a1.235,1.235,0,0,0,1.236,1.236" transform="translate(129.366 188.527)" fill="#878694"/>
      <path id="Path_105495" data-name="Path 105495" d="M72.674,97.661a.988.988,0,1,0-.99-.99.989.989,0,0,0,.99.99" transform="translate(141.362 188.692)" fill="#878694"/>
      <path id="Path_105496" data-name="Path 105496" d="M78.477,97.169a.692.692,0,1,0-.692-.693.691.691,0,0,0,.692.693" transform="translate(153.391 188.888)" fill="#878694"/>
      <path id="Path_105497" data-name="Path 105497" d="M84.214,96.511a.3.3,0,1,0-.3-.3.3.3,0,0,0,.3.3" transform="translate(165.486 189.15)" fill="#878694"/>
      <path id="Path_105498" data-name="Path 105498" d="M90.051,96.1a.05.05,0,0,0,.051-.051.051.051,0,0,0-.1,0,.05.05,0,0,0,.051.051" transform="translate(177.482 189.314)" fill="#878694"/>
      <path id="Path_105499" data-name="Path 105499" d="M30.082,102.18a.1.1,0,0,0,.1-.1.1.1,0,1,0-.2,0,.1.1,0,0,0,.1.1" transform="translate(59.129 201.114)" fill="#878694"/>
      <path id="Path_105500" data-name="Path 105500" d="M36.246,102.592a.346.346,0,1,0-.345-.348.348.348,0,0,0,.345.348" transform="translate(70.797 200.949)" fill="#878694"/>
      <path id="Path_105501" data-name="Path 105501" d="M42.378,102.922a.544.544,0,1,0-.544-.544.544.544,0,0,0,.544.544" transform="translate(82.497 200.818)" fill="#878694"/>
      <path id="Path_105502" data-name="Path 105502" d="M48.476,103.169a.692.692,0,1,0-.692-.692.691.691,0,0,0,.692.692" transform="translate(94.231 200.72)" fill="#878694"/>
      <path id="Path_105503" data-name="Path 105503" d="M54.508,103.25a.742.742,0,1,0-.74-.743.743.743,0,0,0,.74.743" transform="translate(106.031 200.686)" fill="#878694"/>
      <path id="Path_105504" data-name="Path 105504" d="M60.476,103.169a.692.692,0,1,0-.692-.692.691.691,0,0,0,.692.692" transform="translate(117.895 200.72)" fill="#878694"/>
      <path id="Path_105505" data-name="Path 105505" d="M66.378,102.922a.544.544,0,1,0-.544-.544.544.544,0,0,0,.544.544" transform="translate(129.826 200.818)" fill="#878694"/>
      <path id="Path_105506" data-name="Path 105506" d="M72.246,102.592a.346.346,0,1,0-.345-.348.348.348,0,0,0,.345.348" transform="translate(141.79 200.949)" fill="#878694"/>
      <path id="Path_105507" data-name="Path 105507" d="M78.082,102.18a.1.1,0,0,0,.1-.1.1.1,0,1,0-.2,0,.1.1,0,0,0,.1.1" transform="translate(153.786 201.114)" fill="#878694"/>
      <path id="Path_105508" data-name="Path 105508" d="M42.051,108.1a.05.05,0,0,0,.051-.051.051.051,0,0,0-.1,0,.05.05,0,0,0,.051.051" transform="translate(82.825 212.978)" fill="#878694"/>
      <path id="Path_105509" data-name="Path 105509" d="M48.082,108.18a.1.1,0,0,0,.1-.1.1.1,0,0,0-.2,0,.1.1,0,0,0,.1.1" transform="translate(94.625 212.946)" fill="#878694"/>
      <path id="Path_105510" data-name="Path 105510" d="M54.082,108.18a.1.1,0,0,0,.1-.1.1.1,0,0,0-.2,0,.1.1,0,0,0,.1.1" transform="translate(106.457 212.946)" fill="#878694"/>
      <path id="Path_105511" data-name="Path 105511" d="M60.082,108.18a.1.1,0,0,0,.1-.1.1.1,0,0,0-.2,0,.1.1,0,0,0,.1.1" transform="translate(118.289 212.946)" fill="#878694"/>
      <path id="Path_105512" data-name="Path 105512" d="M66.051,108.1a.05.05,0,0,0,.051-.051.051.051,0,0,0-.1,0,.05.05,0,0,0,.051.051" transform="translate(130.153 212.978)" fill="#878694"/>
    </g>
  </g>
</svg>
