<svg xmlns="http://www.w3.org/2000/svg" width="16.768" height="18.165" viewBox="0 0 16.768 18.165">
  <path id="Icon_ionic-md-flower" data-name="Icon ionic-md-flower" d="M19.394,12.458a3.233,3.233,0,0,0-1.4-6.166,3.288,3.288,0,0,0-1.86.572l.026-.245a3.275,3.275,0,0,0-6.55,0l.026.245a3.251,3.251,0,1,0-3.262,5.594,3.233,3.233,0,0,0,1.4,6.166,3.288,3.288,0,0,0,1.86-.572l-.026.245a3.275,3.275,0,0,0,6.55,0l-.026-.245a3.251,3.251,0,1,0,3.262-5.594ZM12.884,15.7a3.245,3.245,0,1,1,3.275-3.244A3.261,3.261,0,0,1,12.884,15.7Z" transform="translate(-4.5 -3.375)" fill="#ff6947"/>
</svg>
